<?xml version="1.0" encoding="utf-8"?>
<!-- Generator: Adobe Illustrator 26.0.1, SVG Export Plug-In . SVG Version: 6.00 Build 0)  -->
<svg version="1.1" id="Layer_1" xmlns="http://www.w3.org/2000/svg" xmlns:xlink="http://www.w3.org/1999/xlink" x="0px" y="0px"
	 viewBox="0 0 82.2 79.3" style="enable-background:new 0 0 82.2 79.3;" xml:space="preserve">
<g id="Layer_1-2">
	<path d="M19.5,28.2L33.2,4.6c2.4-4.3,7.9-5.9,12.2-3.5c1.4,0.8,2.6,2,3.4,3.4l9,15.6l5-2.9l-2.2,16.3l-15.9-5.8l6-3.4l-9-15.6
		c-0.2-0.3-0.6-0.4-0.9-0.2c-0.1,0.1-0.2,0.2-0.3,0.3L26.8,32.4C26.8,32.4,19.5,28.2,19.5,28.2z"/>
	<path d="M36.4,73.6l-27.3,0c-5,0.1-9-3.9-9.1-8.9c0-1.6,0.4-3.2,1.2-4.6l9-15.7l-5-2.9l15.2-6.2l2.9,16.7l-6-3.4l-9,15.6
		c-0.2,0.3-0.1,0.7,0.2,0.9c0.1,0.1,0.3,0.1,0.4,0.1h27.3V73.6L36.4,73.6z"/>
	<path d="M55.2,58.3l-13,10.9l13,10.1v-5.7h18c5,0.1,9-3.9,9.1-8.8c0-1.6-0.4-3.2-1.2-4.6L67.3,36.4l-7.2,4.2l13.7,23.7
		c0.3,0.5-0.1,1-0.6,1h-18L55.2,58.3L55.2,58.3z"/>
</g>
</svg>
